<?xml version="1.0" standalone="no"?>
<!DOCTYPE svg PUBLIC "-//W3C//DTD SVG 20010904//EN"
 "http://www.w3.org/TR/2001/REC-SVG-20010904/DTD/svg10.dtd">
<svg version="1.0" xmlns="http://www.w3.org/2000/svg"
 width="1024.000000pt" height="1024.000000pt" viewBox="0 0 1024.000000 1024.000000"
 preserveAspectRatio="xMidYMid meet">

<g transform="translate(0.000000,1024.000000) scale(0.100000,-0.100000)"
fill="#000000" stroke="none">
<path d="M4865 9834 c-831 -62 -1486 -261 -2150 -652 -1118 -660 -1922 -1770
-2204 -3042 -76 -347 -106 -627 -106 -1020 0 -322 9 -445 51 -720 162 -1061
681 -2033 1474 -2758 1084 -993 2542 -1419 4005 -1171 422 71 919 234 1296
425 324 163 676 397 958 637 142 121 424 405 542 547 574 690 933 1489 1058
2357 39 266 45 365 45 688 0 342 -11 489 -59 773 -142 849 -506 1631 -1065
2288 -125 146 -408 427 -550 545 -354 295 -723 526 -1125 704 -449 199 -925
326 -1425 380 -136 15 -633 28 -745 19z m790 -2725 c301 -15 453 -42 615 -106
84 -34 188 -96 246 -148 24 -22 131 -159 237 -305 l193 -265 189 -6 c278 -9
412 -42 457 -113 40 -65 -2 -175 -84 -217 -36 -18 -59 -21 -186 -22 l-144 -1
5 -43 c13 -122 140 -276 366 -446 161 -121 202 -161 235 -224 57 -114 56 -104
71 -848 14 -705 13 -767 -22 -920 -35 -158 -87 -244 -169 -282 -80 -36 -215
-49 -364 -35 -108 10 -124 14 -165 42 -30 20 -54 49 -71 82 l-26 51 -246 -7
c-771 -20 -1123 -27 -1822 -34 -426 -5 -993 -6 -1260 -2 l-485 6 -52 -47 c-29
-26 -74 -55 -100 -64 -62 -23 -254 -31 -352 -16 -85 13 -137 46 -217 134 -58
64 -85 123 -114 250 l-23 98 12 667 c13 734 15 754 76 879 46 93 86 133 280
277 247 185 316 256 356 374 34 100 38 97 -103 97 -114 0 -128 2 -183 28 -33
15 -75 42 -93 60 -106 102 -26 235 162 268 75 13 393 16 461 5 l40 -7 105 203
c132 254 179 325 278 420 89 85 179 139 267 162 252 64 973 89 1630 55z"/>
<path d="M4239 6920 c-245 -11 -308 -27 -405 -105 -69 -57 -117 -131 -287
-450 l-166 -310 1711 -3 c941 -1 1714 0 1717 4 7 6 -29 109 -79 226 -88 207
-215 392 -328 482 -130 104 -255 141 -527 156 -203 11 -1366 11 -1636 0z"/>
<path d="M2686 5077 c-18 -68 8 -240 50 -325 35 -71 85 -107 171 -122 101 -17
498 -31 685 -24 189 8 190 8 164 82 -58 164 -241 304 -461 351 -104 23 -319
47 -486 55 -115 6 -117 6 -123 -17z"/>
<path d="M7355 5089 c-188 -11 -413 -45 -501 -74 -98 -33 -189 -88 -255 -156
-62 -63 -119 -165 -119 -214 l0 -32 173 -7 c193 -7 588 7 691 25 81 14 124 46
162 121 33 66 56 180 52 269 l-3 74 -30 1 c-16 1 -93 -2 -170 -7z"/>
<path d="M3877 3902 c-15 -17 -57 -188 -57 -233 0 -10 12 -32 28 -49 33 -37
105 -56 365 -100 291 -48 447 -61 792 -67 671 -12 1199 46 1315 144 47 39 50
113 10 255 -21 74 91 68 -1239 68 -1143 0 -1199 -1 -1214 -18z"/>
</g>
</svg>
